<?xml version="1.0" encoding="utf-8"?>
<!-- Generator: Adobe Illustrator 23.0.0, SVG Export Plug-In . SVG Version: 6.00 Build 0)  -->
<svg version="1.1" id="Layer_1" xmlns="http://www.w3.org/2000/svg" xmlns:xlink="http://www.w3.org/1999/xlink" x="0px" y="0px"
	 viewBox="0 0 219.6 211.6" style="enable-background:new 0 0 219.6 211.6;" xml:space="preserve">
<style type="text/css">
	.st0{fill:#FFFFFF;}
	.st1{fill:#FFFFFF;stroke:#9ABD4B;stroke-width:4.41;stroke-miterlimit:10;}
	.st2{fill:#5D7031;}
	.st3{fill:#FFFFFF;stroke:#FFFFFF;stroke-width:6;stroke-linejoin:round;}
	.st4{fill:#666565;}
	.st5{fill:none;stroke:#9ABD4B;stroke-width:4.41;stroke-miterlimit:10;}
	.st6{fill:#D8AE58;}
	.st7{fill:#FFFFFF;stroke:#FFFFFF;stroke-width:6;stroke-miterlimit:10;}
	.st8{fill:none;}
	.st9{fill:#666665;}
	.st10{fill:none;stroke:#666665;stroke-width:2;stroke-linecap:round;stroke-linejoin:round;}
	.st11{fill:none;stroke:#666665;stroke-width:2;stroke-miterlimit:10;}
	.st12{fill:none;stroke:#666665;stroke-width:2.1;stroke-miterlimit:10;}
	.st13{fill:none;stroke:#D42027;stroke-width:2;stroke-linejoin:round;}
	.st14{fill:none;stroke:#D42027;stroke-linejoin:round;}
	.st15{fill:none;stroke:#D42027;stroke-width:2;stroke-linecap:round;stroke-linejoin:round;}
	.st16{fill:none;stroke:#D42027;stroke-miterlimit:10;}
</style>
<g>
	<ellipse class="st0" cx="109.8" cy="105.7" rx="109.8" ry="105.7"/>
</g>
<g id="logo">
	<circle class="st1" cx="113.2" cy="94.8" r="76.5"/>
	<path class="st2" d="M88.9,79.9h2.2l-8.5-17.7l-8.5,17.7h2.4l-2.2,4.7h2.2l-2.2,4.7h7.4v4c0,0.6,0.5,1.1,1.1,1.1l0,0
		c0.6,0,1.1-0.5,1.1-1l0,0v-4h7.4l-2.2-4.7h2.2L88.9,79.9z"/>
	<path class="st2" d="M83.8,89.3h7.4L89,84.6h2.2L89,79.9h2.2l-8.5-17.7v32.2l0,0c0.6,0,1.1-0.5,1.1-1l0,0V89.3z"/>
	<path class="st3" d="M166.8,112.2c0,0-10.3-1.2-14.2,7.6c0,0-1.5,6.2-5.4,8c0,0,12.6-3.5,16.7-6.3c0,0,4.6-5.2,6.4-6.5"/>
	<path class="st2" d="M175.3,75.7h3.3l-12.5-26.1l-12.5,26.1h3.3l-3.3,6.9h3.3l-3.3,6.9h10.9v6c0,0.9,0.7,1.6,1.6,1.6l0,0
		c0.9,0,1.6-0.7,1.6-1.6v-6h10.9l-3.3-6.9h3.3L175.3,75.7z"/>
	<path class="st2" d="M167.7,89.5h10.9l-3.3-6.9h3.3l-3.3-6.9h3.3l-12.5-26.1v47.5l0,0c0.9,0,1.6-0.7,1.6-1.6V89.5z"/>
	<path class="st2" d="M148.2,77.7h1.9l-7.3-15.3l-7.3,15.3h1.9l-1.9,4h1.9l-1.9,4h6.4v3.5c0,0.5,0.4,0.9,0.9,0.9l0,0
		c0.5,0,0.9-0.4,0.9-0.9v-3.4h6.4l-1.9-4h1.9L148.2,77.7z"/>
	<path class="st2" d="M143.8,85.8h6.4l-1.9-4h1.9l-1.9-4h1.9l-7.3-15.3v27.7l0,0c0.5,0,0.9-0.4,0.9-0.9L143.8,85.8L143.8,85.8z"/>
	<path class="st2" d="M65.9,76.6h2.8L58,55L47.3,76.6h2.8l-2.8,5.7h2.8L47.3,88h9.4v5c0,0.7,0.7,1.3,1.4,1.2l0,0
		c0.7,0,1.3-0.6,1.3-1.3v-5h9.4L66,82.2h2.8L65.9,76.6z"/>
	<path class="st2" d="M59.3,88h9.4l-2.8-5.7h2.8l-2.8-5.7h2.8L58,55v39.3l0,0c0.7,0,1.3-0.6,1.3-1.3V88z"/>
	<circle class="st5" cx="113.2" cy="94.8" r="76.5"/>
	<path class="st4" d="M36,135.8l-0.9-1.9l-11.7,5.7l-0.9-1.8l11.7-5.7l-0.9-1.9l1.9-0.9l2.7,5.6L36,135.8z"/>
	<path class="st4" d="M41.6,141l-13.1,7.8l-1-1.8l6.1-3.6l-1.1-1.9l-6.1,3.7l-1-1.8l13.1-7.8l1,1.8l-5.1,3l1.1,1.8l5.1-3L41.6,141z"
		/>
	<path class="st4" d="M35.1,152.1l-1.2-1.6l-3.1,1.8l-1.1-1.6l13.7-7l1.2,1.6l-11,10.8l-1.2-1.7L35.1,152.1z M36.7,150.5l4.1-3.7
		l0,0l-4.8,2.7L36.7,150.5z"/>
	<path class="st4" d="M51.9,154l-11.4,10l-1.3-1.5l7-6.2l-7.9,5.2l-0.9-1l6.2-7.1l0,0l-7,6.2l-1.4-1.6l11.4-10l1.8,2.1l-6,7l0,0
		l7.7-5L51.9,154z"/>
	<path class="st4" d="M52.8,157.9l-2.6,2.7l1.5,1.4l-1.5,1.6l-1.5-1.4l-3.4,3.6l2.3,2.1l-1.5,1.6l-3.7-3.6l10.5-11l3.6,3.4l-1.5,1.6
		L52.8,157.9z"/>
	<path class="st4" d="M57.4,164.7l0.4-0.5c0.7-0.8,0.7-1.5,0.3-1.9c-0.5-0.3-1.1-0.2-1.4,0.2c0,0,0,0.1-0.1,0.1
		c-0.4,0.5-0.7,1.1-0.7,1.8l-0.4,3.7c0,1.4-0.5,2.8-1.4,3.8c-1.4,1.7-3.2,1.8-4.5,0.7s-1.5-2.8-0.1-4.5l1-1.2l1.6,1.3l-0.9,1.1
		c-0.6,0.7-0.6,1.3-0.2,1.6c0.4,0.3,1,0.2,1.6-0.5c0.5-0.6,0.7-1.3,0.8-2l0.2-2.9c0.2-2,0.2-2.6,1.5-4.3c1.3-1.7,3.1-1.8,4.5-0.7
		s1.4,2.9,0.1,4.5l-0.7,0.8L57.4,164.7z"/>
	<path class="st4" d="M60.8,180.5l1.7-6.2c-0.2-0.1-0.5-0.3-0.5-0.4l-3.3,5.2L57,178l8.1-12.8L68,167c1.7,1,1.4,3.2,0.1,5.2
		s-2.6,2.7-3.8,2.8l-1.7,6.6L60.8,180.5z M63.1,172l0.5,0.4c1.1,0.7,1.5,0.7,2.7-1.2c0.7-1,1-1.9,0.3-2.4l-1.1-0.7L63.1,172z"/>
	<path class="st4" d="M66,183.4l-1.8-1l7.3-13.3l1.8,1L66,183.4z"/>
	<path class="st4" d="M72,186.4l-2-0.9l4.1-14.9l2,0.9l-3.4,10.8l0,0l6.1-9.6l2,0.9L72,186.4z"/>
	<path class="st4" d="M82.8,176.7l-1.3,3.5l1.9,0.7l-0.7,2l-1.9-0.7l-1.7,4.6l2.9,1.1l-0.7,2l-4.8-1.8l5.2-14.3l4.6,1.7l-0.7,2
		L82.8,176.7z"/>
	<path class="st4" d="M87.8,191.9l-0.2-6.4l-0.6-0.2l-1.6,5.9l-1.9-0.5l4.1-14.6l3.3,0.9c1.9,0.5,2.3,2.6,1.6,5
		c-0.6,2.2-1.7,3.4-2.8,3.8l0.3,6.8L87.8,191.9z M87.6,183.1l0.6,0.2c1.3,0.4,1.7,0.2,2.3-1.9c0.3-1.2,0.4-2.1-0.4-2.4l-1.3-0.4
		L87.6,183.1z"/>
	<path class="st4" d="M99.7,190.7l-2-0.3l-0.9,3.4l-1.9-0.3l4.6-14.7l2,0.3l0.2,15.3l-2-0.3L99.7,190.7z M99.7,188.5l0.2-5.5l0,0
		l-1.4,5.3L99.7,188.5z"/>
	<path class="st4" d="M110.9,180l-1,15.1l-2-0.1l-1.4-8.8l0,0l-0.6,8.7l-2-0.1l1-15.1l2.1,0.1l1.3,8.5l0,0l0.6-8.4L110.9,180z"/>
	<path class="st4" d="M116.2,184.3v-1.2c0-0.5-0.4-1.2-0.9-1.2s-1,0.8-1,1.3l0.2,8.8c0,0.5,0.3,1.2,1,1.2s1.1-0.8,1.1-2v-2.3h-1.1
		v-2.2l3-0.1l0.1,4.7c0,2.1-0.8,3.9-2.9,4c-1.7,0-3.1-1.3-3.2-3c0-0.1,0-0.2,0-0.3l-0.2-8.8c0-1.5,0.7-3.4,3-3.5
		c1.7,0,3.1,1.5,3.1,3.2v0.1v1.2L116.2,184.3z"/>
	<path class="st4" d="M125.3,192.3l0.2,2.2l-4.7,0.5l-1.5-15.1l2-0.2l1.3,13L125.3,192.3z"/>
	<path class="st4" d="M127.4,181l0.6,3.7l2-0.4l0.4,2.1l-2,0.4l0.8,4.9l3.1-0.5l0.4,2.1l-5.1,0.9l-2.5-15l4.8-0.8l0.4,2.1L127.4,181
		z"/>
	<path class="st4" d="M139.3,191.7l-3.4-5.4l-0.6,0.2l1.5,5.9l-2,0.5l-3.7-14.7l3.3-0.8c1.9-0.5,3.3,1.1,3.9,3.5
		c0.6,2.2,0.2,3.8-0.6,4.6l3.7,5.8L139.3,191.7z M134.7,184.2l0.6-0.2c1.3-0.3,1.6-0.6,1-2.8c-0.3-1.2-0.7-2-1.5-1.9l-1.3,0.3
		L134.7,184.2z"/>
	<path class="st4" d="M143.1,179.1l-0.2-0.6c-0.4-1-0.9-1.4-1.4-1.3c-0.5,0.3-0.7,0.9-0.5,1.4l0,0c0.2,0.6,0.6,1.2,1.1,1.6l2.9,2.3
		c1.2,0.7,2.1,1.9,2.5,3.2c0.7,2.1-0.2,3.7-1.7,4.2s-3.2-0.2-3.9-2.3l-0.5-1.5l1.9-0.7l0.5,1.3c0.3,0.9,0.8,1.2,1.3,1
		c0.5-0.2,0.7-0.8,0.4-1.6c-0.2-0.7-0.7-1.3-1.3-1.7l-2.4-1.6c-1.6-1.3-2.2-1.6-2.8-3.5s0.1-3.6,1.7-4.2c1.6-0.6,3.2,0.3,3.9,2.2
		l0.4,1L143.1,179.1z"/>
	<path class="st4" d="M156.1,181.5l-1.8,0.9l1.2,3.4l-1.7,0.8l-4.5-14.7l1.8-0.9l8.7,12.6l-1.9,0.9L156.1,181.5z M154.9,179.7
		l-2.9-4.6h-0.1l1.8,5.2L154.9,179.7z"/>
	<path class="st4" d="M159.3,171.4l-0.3-0.6c-0.5-0.9-1.2-1.2-1.6-1c-0.5,0.3-0.6,0.9-0.3,1.4c0,0,0,0.1,0.1,0.1
		c0.3,0.6,0.8,1.1,1.4,1.3l3.3,1.6c1.3,0.5,2.4,1.4,3.1,2.6c1.1,1.9,0.6,3.6-0.9,4.5s-3.2,0.4-4.3-1.4l-0.8-1.4l1.8-1l0.7,1.2
		c0.5,0.8,1,1,1.5,0.7c0.5-0.3,0.5-0.9,0.1-1.7c-0.4-0.6-0.9-1.1-1.6-1.4l-2.6-1.1c-1.8-0.9-2.4-1.1-3.5-2.9s-0.7-3.6,0.8-4.4
		s3.2-0.3,4.3,1.4l0.5,0.9L159.3,171.4z"/>
	<path class="st4" d="M165.2,167.5l-0.4-0.5c-0.6-0.9-1.3-1.1-1.7-0.8c-0.4,0.3-0.5,1-0.1,1.4l0.1,0.1c0.4,0.6,0.9,1,1.5,1.2
		l3.4,1.4c1.3,0.4,2.5,1.2,3.3,2.4c1.3,1.8,0.8,3.6-0.5,4.5s-3.1,0.7-4.4-1.1l-0.9-1.3l1.7-1.2l0.8,1.1c0.5,0.8,1.1,0.9,1.6,0.6
		s0.5-0.9-0.1-1.7c-0.4-0.6-1-1.1-1.7-1.3l-2.7-0.9c-1.9-0.8-2.5-0.9-3.7-2.6s-0.9-3.5,0.5-4.5s3.2-0.6,4.4,1.1l0.6,0.9L165.2,167.5
		z"/>
	<path class="st4" d="M171.9,160.8l5.6,6.7c1,1.2,1.5,3.2-0.1,4.5c-1.7,1.4-3.5,0.5-4.5-0.7l-5.6-6.7c-1-1.2-1.6-3.1,0.2-4.6
		C169.1,158.8,170.9,159.6,171.9,160.8z M170.4,162.1c-0.3-0.4-1.1-0.8-1.5-0.4c-0.4,0.4-0.3,1.3,0,1.6l5.6,6.7
		c0.3,0.4,1.1,0.8,1.6,0.4c0.5-0.4,0.2-1.2-0.1-1.6L170.4,162.1z"/>
	<path class="st4" d="M176.7,157.9l-0.8-0.9c-0.3-0.3-1.1-0.6-1.5-0.2c-0.4,0.5-0.3,1.2,0.1,1.6l6.1,6.2c0.4,0.5,1.1,0.5,1.6,0.2
		c0.4-0.4,0.1-1.2-0.2-1.5l-0.8-0.9l1.5-1.4l0.8,0.9c1.3,1.1,1.5,3,0.4,4.3c-1.1,1.3-3,1.5-4.3,0.4c-0.2-0.1-0.3-0.3-0.4-0.4
		l-6.1-6.3c-1.3-1.1-1.5-3-0.5-4.3c1-1.3,3-1.5,4.3-0.5c0.2,0.2,0.4,0.3,0.5,0.5l0.8,0.9L176.7,157.9z"/>
	<path class="st4" d="M188.5,161l-1.4,1.5l-11.3-10.1l1.4-1.5L188.5,161z"/>
	<path class="st4" d="M189.8,154l-1.2,1.6l2.5,2.5l-1.2,1.5l-10.5-11.2l1.3-1.6l13.4,7.6l-1.3,1.6L189.8,154z M187.8,152.9l-4.7-2.9
		l0,0l3.9,3.9L187.8,152.9z"/>
	<path class="st4" d="M186.9,141.6l-1.2,1.7l10.8,7.4l-1.1,1.7l-10.8-7.4l-1.2,1.7l-1.8-1.2l3.5-5.1L186.9,141.6z"/>
	<path class="st4" d="M199.7,145.5l-1.1,1.8l-13-7.8l1.1-1.7L199.7,145.5z"/>
	<path class="st4" d="M193,132.7l7.8,4c1.4,0.7,2.6,2.4,1.7,4.2c-1,2-3,1.9-4.4,1.1l-7.8-4c-1.4-0.7-2.6-2.3-1.6-4.3
		C189.6,132,191.6,132,193,132.7z M192.1,134.5c-0.4-0.2-1.3-0.3-1.6,0.2s0.3,1.3,0.6,1.5l7.8,4c0.4,0.2,1.3,0.3,1.6-0.3
		s-0.3-1.2-0.7-1.4L192.1,134.5z"/>
	<path class="st4" d="M193,124.5l14,5.8l-0.8,1.9l-8.8-1.5l0,0l8.1,3.3l-0.8,1.9l-14-5.8l0.8-2l8.5,1.5l0,0l-7.8-3.2L193,124.5z"/>
	<path class="st4" d="M83.7,150h-1.5l-0.3,2.1h-1.5l1.8-8.8h1.6l1.8,8.8h-1.5L83.7,150z M83.4,148.7l-0.5-3.2l0,0l-0.5,3.2H83.4z"/>
	<path class="st4" d="M92,143.2v8.8h-1.6l-1.6-5.1l0,0v5.1h-1.6v-8.8h1.7l1.5,4.9l0,0v-4.9L92,143.2z"/>
	<path class="st4" d="M97,145.8v-0.7c0-0.4-0.4-0.7-0.8-0.7s-0.6,0.3-0.7,0.7v5.1c0,0.4,0.4,0.7,0.8,0.7c0.6,0,0.9-0.4,0.9-1.1v-1.4
		h-0.9v-1.3h2.3v2.7c0.1,1.2-0.8,2.2-2,2.3c-0.1,0-0.2,0-0.3,0c-1.8,0-2.4-1.1-2.4-2v-5c0-0.9,0.6-2,2.4-2c1.1-0.1,2.2,0.7,2.3,1.9
		v0.1v0.7H97z"/>
	<path class="st4" d="M104,150.8v1.3h-3.6v-8.8h1.6v7.6L104,150.8z"/>
	<path class="st4" d="M107.3,144.5v2.2h1.6v1.3h-1.6v2.9h2.4v1.3h-4v-8.8h3.8v1.3h-2.2V144.5z"/>
	<path class="st4" d="M115,152.1l-1.5-3.6H113v3.6h-1.6v-8.8h2.6c1.5,0,2.2,1.1,2.2,2.5c0.1,1-0.4,2-1.3,2.5l1.7,3.8H115z
		 M113,147.2h0.5c1,0,1.3-0.1,1.3-1.4c0-0.7-0.2-1.3-0.8-1.3h-1V147.2z"/>
	<path class="st4" d="M121,145.7v-0.4c0-0.6-0.3-1-0.7-1c-0.4,0-0.7,0.3-0.7,0.6l0,0c0,0.4,0.1,0.8,0.4,1.1l1.6,1.8
		c0.6,0.6,1,1.4,1,2.3c0,1.1-1,2-2.1,2c-0.1,0-0.1,0-0.2,0c-1.1,0.2-2.1-0.6-2.3-1.7c0-0.1,0-0.2,0-0.3v-0.9h1.6v0.8
		c0,0.5,0.3,0.8,0.7,0.8c0.4,0,0.7-0.3,0.7-0.7V150c0-0.5-0.2-0.9-0.5-1.2l-1.3-1.4c-0.8-1-1.2-1.3-1.2-2.5c0.2-1.3,1.4-2.1,2.6-2
		c1,0.1,1.8,0.9,2,2v0.6L121,145.7z"/>
	<path class="st4" d="M124.4,150.5h1.6v1.6h-1.6V150.5z"/>
	<path class="st4" d="M132.5,145.1v5.1c0,1.1-1,2-2.1,2h-0.1c-1.7,0-2.3-1.1-2.3-2v-5.1c0-0.9,0.6-2,2.3-2c1.1-0.1,2.2,0.7,2.3,1.8
		C132.5,145,132.5,145,132.5,145.1z M130.9,145.1c0-0.4-0.4-0.7-0.8-0.7c-0.3,0-0.6,0.3-0.7,0.7v5.1c0,0.4,0.3,0.8,0.8,0.8l0,0
		c0.4,0,0.7-0.4,0.7-0.8V145.1z"/>
	<path class="st4" d="M137.9,152.1l-1.5-3.6h-0.5v3.6h-1.6v-8.8h2.6c1.5,0,2.2,1.1,2.2,2.5c0.1,1-0.4,2-1.3,2.5l1.7,3.8H137.9z
		 M135.9,147.2h0.5c1,0,1.3-0.1,1.3-1.4c0-0.7-0.2-1.3-0.8-1.3h-1V147.2z"/>
	<path class="st4" d="M144.1,145.8v-0.7c0-0.4-0.3-0.8-0.8-0.8c-0.4,0-0.8,0.3-0.8,0.8v5.1c0,0.4,0.4,0.7,0.8,0.7
		c0.6,0,0.9-0.4,0.9-1.1v-1.4h-0.9v-1.3h2.3v2.7c0.1,1.2-0.8,2.2-2,2.3c-0.1,0-0.2,0-0.3,0c-1.8,0-2.4-1.1-2.4-2v-5
		c0-0.9,0.6-2,2.4-2c1.1-0.1,2.2,0.7,2.3,1.8c0,0.1,0,0.1,0,0.2v0.7H144.1z"/>
	<path class="st4" d="M89.2,47.4v2.4H91v1.4h-1.8v3.2h2.7v1.4h-4.4V46h4.2v1.4C91.7,47.4,89.2,47.4,89.2,47.4z"/>
	<path class="st4" d="M97,48.7v-0.4c0-0.7-0.4-1.1-0.8-1.1s-0.8,0.3-0.8,0.7l0,0c0,0.5,0.2,0.9,0.5,1.2l1.8,2
		c0.7,0.6,1.1,1.5,1.1,2.5c-0.1,1.3-1.1,2.3-2.4,2.2c-0.1,0-0.1,0-0.2,0c-1.2,0.2-2.4-0.7-2.5-2c0-0.1,0-0.2,0-0.2v-1h1.8v0.9
		c0,0.6,0.3,0.9,0.8,0.9c0.4,0,0.8-0.4,0.8-0.8v-0.1c0-0.5-0.2-1-0.6-1.3l-1.4-1.5c-0.9-1.1-1.3-1.4-1.3-2.7
		c0.2-1.4,1.5-2.4,2.9-2.2c1.1,0.2,2,1,2.2,2.2v0.7C98.9,48.7,97,48.7,97,48.7z"/>
	<path class="st4" d="M105.9,47.4h-1.8v8.4h-1.8v-8.4h-1.8V46h5.3v1.4H105.9z"/>
	<path class="st4" d="M107,54h1.8v1.8H107V54z"/>
	<path class="st4" d="M114.7,46h1.8v9.8h-1.8v-8.4h-0.8v-1L114.7,46z"/>
	<path class="st4" d="M118.5,49.8c0-0.1,0-1.2,0-1.4c-0.1-1.4,1-2.5,2.3-2.6c0.2,0,0.3,0,0.5,0c1.3-0.1,2.4,0.8,2.6,2.1V48v4.9
		c0.1,1.5-1,2.8-2.5,2.9h-0.1c-1.2,0.1-2.3-0.8-2.4-2.1v-0.1v-0.8h1.7v0.8c0,0.4,0.3,0.8,0.7,0.8l0,0c0.7,0,0.9-0.7,0.9-1.5v-1.6
		c-0.3,0.4-0.7,0.6-1.2,0.6c-1.2,0.1-2.2-0.7-2.4-1.9C118.5,50,118.5,49.9,118.5,49.8z M120.3,49.8c0,0.5,0.4,0.8,0.8,0.8l0,0
		c0.6,0,0.9-0.3,0.9-0.5v-2c0-0.4-0.4-0.8-0.8-0.8c-0.7,0-1,0.4-1,1.2C120.3,48.5,120.3,49.7,120.3,49.8z"/>
	<path class="st4" d="M131.5,53c0.1,1.6-1.1,2.9-2.7,3c-1.6,0.1-2.9-1.1-3-2.7c0-0.1,0-0.2,0-0.3c0-1.1,0.6-2.1,1.6-2.4
		c-0.8-0.4-1.3-1.3-1.3-2.2c-0.1-1.2,0.8-2.4,2.1-2.5c0.1,0,0.3,0,0.4,0c1.3-0.1,2.4,0.7,2.5,2c0,0.2,0,0.3,0,0.5
		c0,0.9-0.5,1.7-1.3,2.2C130.9,50.9,131.5,51.9,131.5,53z M129.7,53c0-0.9-0.2-1.6-1-1.8c-0.8,0.2-1.1,0.8-1.1,1.8
		c0,0.9,0.3,1.5,1.2,1.5C129.4,54.5,129.7,53.7,129.7,53z M127.8,48.4c-0.2,0.5,0.1,1,0.5,1.2c0.5,0.2,1-0.1,1.2-0.5
		c0.1-0.2,0.1-0.4,0-0.6c0-0.7-0.3-1.2-0.8-1.2S127.8,47.7,127.8,48.4z"/>
	<path class="st4" d="M138.8,51.9c0,0.1,0,1.3,0,1.4c0.1,1.4-0.9,2.5-2.3,2.6c-0.2,0-0.3,0-0.5,0c-1.3,0.1-2.4-0.8-2.6-2.1v-0.1
		v-4.9c-0.1-1.5,1-2.8,2.5-2.9h0.1c1.2-0.1,2.3,0.8,2.4,2.1v0.1v0.7h-1.7v-0.7c0-0.4-0.3-0.8-0.7-0.8c0,0,0,0-0.1,0
		c-0.7,0-0.9,0.8-0.9,1.5v1.5c0.3-0.4,0.7-0.6,1.2-0.6c1.2-0.2,2.2,0.7,2.4,1.8C138.8,51.7,138.8,51.8,138.8,51.9z M137,51.9
		c0-0.4-0.4-0.8-0.8-0.8l0,0c-0.5,0-0.9,0.3-0.9,0.5v2c0,0.4,0.4,0.8,0.8,0.8c0.7,0,1-0.4,1-1.2C137,53.2,137,52.1,137,51.9
		L137,51.9z"/>
	<circle class="st6" cx="113.3" cy="30.2" r="3.9"/>
	<ellipse transform="matrix(0.7714 -0.6363 0.6363 0.7714 7.6712 77.3624)" class="st0" cx="111.5" cy="28" rx="0.8" ry="0.5"/>
	<circle class="st6" cx="91.1" cy="35.4" r="3.9"/>
	<ellipse transform="matrix(0.7714 -0.6363 0.6363 0.7714 -0.7152 64.437)" class="st0" cx="89.3" cy="33.2" rx="0.8" ry="0.5"/>
	<circle class="st6" cx="134.7" cy="35.4" r="3.9"/>
	<ellipse transform="matrix(0.7714 -0.6363 0.6363 0.7714 9.2587 92.1708)" class="st0" cx="132.9" cy="33.2" rx="0.8" ry="0.5"/>
	<ellipse class="st0" cx="91.1" cy="36.7" rx="2" ry="1"/>
	<ellipse class="st0" cx="113.3" cy="31.5" rx="2" ry="1"/>
	<ellipse class="st0" cx="134.7" cy="36.7" rx="2" ry="1"/>
	<path class="st7" d="M125.4,86.1c0,0-2.8-1.5-4.3-1.6c0,0-11.2-10.6-13.7-12c0,0-6.7,11-9.7,11.9c0,0-0.8,1,2.7,1.3
		c0,0,3.3,0,3.6,0.4c0,0,1.2,0.4,1.1,1.1"/>
	<path class="st7" d="M77.8,88.6c-4-2.1-8.3-3.3-12.8-3.5c0,0-2.3,0.5-4.2,4.3c0,0,0,0.7,1.2,1.3"/>
	<path class="st7" d="M57.5,106.8c-1.5-0.2-13.2,4.8-13.2,4.8c-23.6,14.7-32.8,12.5-32.8,12.5c0-5,8.9-19.2,8.9-19.2
		c4.7-5.8,1.9-9.6,1.9-9.6c-10.4-21.5-9.1-21.7-9.1-21.7c5.8-0.1,27.9,10.1,27.9,10.1c3.4,1.8,6.9,3.3,10.5,4.7l5.1,2
		c1.5,0.8,13.2,0.5,13.2,0.5c23.6-6.8,94.1-6.3,94.1-6.3l7.8,0.6c0,0,30.4,3.7,35.1,11.9c0,0-7.2,3.8-11.5,7.8c0,0,6.1-0.7,7.5-1
		l5.3-0.4c0,0,0.4,0.4-7.7,6.3c-4,1.9-8.2,3.5-12.5,4.8l-7.3,1.6c-6,1.5-11.7,4.4-16.8,5.4c0,0-14.7,3-39,1.3s-16.6-2.7-35.7-7.3
		S69.5,108.7,57.5,106.8z"/>
	<path class="st7" d="M124.8,116.5c0,0-3.6,15.2-10.3,17.4c-2.2-2.5-3.9-5.3-5.1-8.4c-0.8-2.1-1.4-4.2-1.7-6.4c0,0,0.3-2.4,2.3-2.6
		c0,0,3.2,1.1,4.7,0"/>
	<path class="st7" d="M85,113.1c-2.6,3.9-6,7.3-9.8,10.1c0,0-2.8,3-4.1,2.7c-0.7-0.2-0.3-2.1-0.1-4.9c-1.1-3.3-3-6.2-5.4-8.7
		c0,0-1.8-1.5,0-2.3c0,0,0.4,0.1,5-1"/>
	<polygon class="st9" points="16.5,80.7 37.9,88.9 15.9,82.6 	"/>
	<polygon class="st9" points="20.8,90.8 32.3,93.1 20.6,92.8 	"/>
	<polygon class="st9" points="21.9,101.3 32.3,100.1 22.4,103.3 	"/>
	<polygon class="st9" points="18.7,107 35.9,104.2 19.2,108.9 	"/>
	<polygon class="st9" points="14.8,113.3 36.9,106.9 15.4,115.2 	"/>
	<polygon class="st9" points="11.8,118.8 36.6,111.1 12.4,120.7 	"/>
	<path class="st9" d="M194.4,95c0-0.4-0.3-0.7-0.6-0.8c-0.1,0-0.5-0.2-0.7-0.2c-0.3-0.1-0.7-0.1-1,0c-0.4,0.1-0.8,0.2-1.1,0.4
		c-0.4,0.2-0.8,0.6-1,1c-0.2,0.5-0.1,1,0.3,1.4c0.9,0.4,1.4,1.1,2.4,0.8c0.3,0,0.7-0.1,0.9-0.4s0.4-0.6,0.5-0.9
		c0.1-0.2,0.2-0.4,0.2-0.6"/>
	<path class="st10" d="M51.7,107.9c0,0,4.6-6.3,44.9,9.8c0,0-0.8-0.1,11.1,3.3"/>
	<path class="st11" d="M122.8,122.7c5.6,0.2,16.6,0.6,24.3,0.5c0,0,1.6,0,4.2-0.1"/>
	<path class="st9" d="M166.8,112.3c-1.4-0.1-2.8,0-4.2,0.3c-0.4,0.1-0.7,0.2-1,0.3s-0.7,0.2-1,0.3c-0.3,0.1-0.7,0.2-1,0.4
		c-0.3,0.1-0.6,0.3-0.9,0.4c-0.3,0.2-0.6,0.3-0.9,0.5l-0.9,0.6c-0.3,0.2-0.5,0.4-0.8,0.7c-0.3,0.2-0.5,0.5-0.7,0.7
		c-0.2,0.3-0.5,0.5-0.7,0.8l-0.6,0.9c-0.4,0.6-0.7,1.2-1,1.8v-0.1c-0.4,1.7-1.1,3.3-1.9,4.8c-0.4,0.8-1,1.5-1.6,2.1
		c-0.3,0.3-0.6,0.6-1,0.9c-0.2,0.1-0.4,0.3-0.6,0.4l-0.6,0.4l-0.6-1.5c2.8-0.9,5.6-1.9,8.4-2.9c1.4-0.5,2.8-1,4.1-1.6
		c0.7-0.3,1.4-0.6,2-0.8s1.3-0.6,1.9-1l-0.1,0.1c1.1-1.1,2.2-2.2,3.3-3.2c0.6-0.5,1.1-1,1.7-1.5c0.6-0.5,1.2-1,1.9-1.4h0.1v0.1
		c-1.1,1.1-2,2.3-2.9,3.5l-2.8,3.5l-0.1,0.1l0,0c-0.3,0.2-0.7,0.5-1,0.7l-1,0.6c-0.7,0.4-1.4,0.7-2.1,1s-1.4,0.6-2.1,0.9
		s-1.4,0.5-2.1,0.8c-1.4,0.5-2.9,0.9-4.3,1.3s-2.9,0.8-4.4,1.2c-0.4,0.1-0.9-0.1-1-0.6c-0.1-0.4,0.1-0.8,0.4-0.9l0,0l0.5-0.3
		c0.2-0.1,0.3-0.2,0.5-0.3c0.3-0.2,0.6-0.4,0.9-0.7c0.5-0.6,1-1.2,1.5-1.8c0.4-0.7,0.8-1.4,1.1-2.1s0.6-1.5,0.8-2.2v-0.1l0,0
		c0.3-0.7,0.7-1.3,1.1-1.9l0.7-0.9c0.2-0.3,0.5-0.5,0.8-0.8s0.5-0.5,0.8-0.8c0.3-0.2,0.6-0.5,0.9-0.7l0.9-0.6c0.3-0.2,0.7-0.3,1-0.5
		s0.7-0.3,1-0.4s0.7-0.2,1-0.3c0.4-0.1,0.7-0.2,1.1-0.3s0.7-0.2,1.1-0.2c1.4-0.2,2.9-0.2,4.3-0.1c0,0,0.1,0,0.1,0.1l0,0
		C166.9,112.2,166.8,112.3,166.8,112.3z"/>
	<path class="st9" d="M125.4,86.1c-0.7-0.3-1.4-0.5-2.2-0.7c-0.3-0.1-0.7-0.2-1.1-0.3c-0.3-0.1-0.7-0.1-1-0.1H121l-0.2-0.1
		c-2.4-1.9-4.7-3.9-7-5.9c-1.2-1-2.3-2-3.5-2.9c-0.6-0.5-1.2-1-1.7-1.4c-0.3-0.2-0.6-0.5-0.9-0.7c-0.3-0.2-0.6-0.4-0.8-0.6l1.3-0.3
		c-0.7,1.1-1.4,2.2-2.1,3.3c-0.7,1.1-1.5,2.2-2.3,3.2s-1.6,2-2.5,3c-0.5,0.5-0.9,1-1.5,1.4c-0.3,0.2-0.6,0.4-0.8,0.6
		c-0.3,0.2-0.7,0.4-1.1,0.5l0.3-0.2c0,0,0.1-0.1,0.1-0.2v-0.1l0,0l0.1,0.1c0.1,0.1,0.2,0.1,0.3,0.1c0.1,0.1,0.2,0.1,0.3,0.1
		c0.5,0.1,1,0.3,1.6,0.3l0,0c0.6,0,1.2,0.1,1.9,0.2c0.3,0,0.6,0.1,0.9,0.2c0.2,0,0.3,0.1,0.5,0.1l0.3,0.1c0.1,0,0.2,0.1,0.3,0.2
		l-0.1-0.1c0.3,0.1,0.5,0.3,0.7,0.5s0.3,0.5,0.3,0.8c0-0.3-0.2-0.5-0.4-0.6c-0.2-0.1-0.5-0.2-0.7-0.3l-0.1-0.1h-0.1h-0.2h-0.4h-0.9
		c-0.6,0-1.2,0-1.8,0.1l0,0c-0.6,0-1.2-0.1-1.8-0.2c-0.2,0-0.3-0.1-0.5-0.1c-0.2-0.1-0.3-0.1-0.5-0.2s-0.4-0.3-0.5-0.6
		c-0.1-0.2-0.1-0.4-0.1-0.6s0.1-0.4,0.2-0.5l0.1-0.1l0.2-0.1c0.5-0.3,0.9-0.6,1.3-1c0.4-0.5,0.8-1,1.1-1.5c0.8-1,1.6-2,2.3-3
		s1.5-2.1,2.2-3.2c0.7-1.1,1.1-2.1,1.7-3.1l0.5-0.8l0.8,0.5c0.3,0.2,0.7,0.5,1,0.7s0.6,0.5,0.9,0.7c0.6,0.5,1.2,1,1.8,1.5
		c1.2,1,2.3,2.1,3.4,3.1c2.2,2.1,4.3,4.3,6.4,6.5l-0.3-0.1c0.4,0.1,0.8,0.2,1.2,0.3c0.4,0.1,0.7,0.3,1.1,0.5
		C124.1,85.3,124.7,85.7,125.4,86.1z"/>
	<path class="st9" d="M120,86.1l-11.9-10.6l12.5,9.9c0.2,0.2,0.3,0.5,0.1,0.7C120.5,86.3,120.2,86.4,120,86.1L120,86.1z"/>
	<path class="st9" d="M115.1,86.1l-7.9-7.7l8.5,6.9c0.2,0.2,0.2,0.5,0.1,0.7C115.7,86.3,115.4,86.3,115.1,86.1L115.1,86.1z"/>
	<path class="st9" d="M110.9,85.7l-4.8-4.7l5.5,3.9c0.2,0.2,0.3,0.5,0.1,0.7l0,0C111.5,85.8,111.2,85.9,110.9,85.7L110.9,85.7z"/>
	<path class="st9" d="M107.2,86.3l-3.9-3.7l4.5,2.9c0.2,0.1,0.3,0.4,0.2,0.7l0,0C107.8,86.4,107.5,86.5,107.2,86.3L107.2,86.3z"/>
	<path class="st9" d="M77.8,88.6c-1.1-0.3-2.2-0.6-3.2-0.9c-0.5-0.1-1.1-0.3-1.6-0.4s-1.1-0.2-1.6-0.3s-1.1-0.2-1.6-0.3
		s-1.1-0.2-1.6-0.3s-1.1-0.1-1.6-0.2l-1.7-0.1h0.3H65l-0.3,0.1c-0.2,0.1-0.4,0.2-0.6,0.3c-0.4,0.3-0.7,0.5-1.1,0.8
		c-0.4,0.3-0.7,0.7-1,1.1s-0.6,0.8-0.9,1.2v-0.2l0,0c0,0,0,0,0,0.1s0,0.1,0,0.2s0.1,0.2,0.2,0.4c0.1,0.3,0.3,0.5,0.5,0.7
		c-0.3-0.1-0.6-0.2-0.9-0.4c-0.2-0.1-0.3-0.2-0.4-0.4c-0.1-0.1-0.1-0.2-0.2-0.2l-0.1-0.2c0-0.1,0-0.1,0-0.2l0,0v-0.2
		c0.2-0.5,0.5-1,0.7-1.5c0.3-0.5,0.6-1,0.9-1.4c0.3-0.5,0.8-0.9,1.2-1.2c0.2-0.2,0.5-0.4,0.7-0.5c0.1-0.1,0.3-0.2,0.4-0.2
		c0.2-0.1,0.3-0.2,0.5-0.2h0.1h0.1c1.2,0,2.3,0.1,3.4,0.3c1.1,0.2,2.3,0.5,3.3,0.8c1.1,0.4,2.2,0.8,3.2,1.3
		C76,87.2,77,87.8,77.8,88.6z"/>
	<path class="st9" d="M161.3,91.4l-0.1-0.2c0-0.3-0.2-0.5-0.4-0.6l-0.5-0.1c-0.2-0.1-0.5-0.1-0.7,0c-0.3,0.1-0.5,0.2-0.8,0.3
		c-0.4,0.2-0.7,0.6-0.8,1c-0.2,0.3-0.2,0.6,0.1,0.8c0.6,0.4,1.3,0.6,2,0.5c0.2,0,0.5-0.1,0.6-0.3c0.2-0.2,0.3-0.4,0.3-0.7
		c0.1-0.1,0.1-0.3,0.1-0.4C161.2,91.8,161.3,91.5,161.3,91.4z"/>
	<path class="st9" d="M146.9,91.5c0,0,0-0.1-0.1-0.1c0-0.2-0.1-0.3-0.3-0.3l-0.3-0.1c-0.1,0-0.3,0-0.4,0c-0.2,0-0.3,0.1-0.5,0.2
		s-0.4,0.4-0.5,0.6s-0.1,0.4,0,0.5c0.3,0.2,0.8,0.4,1.2,0.3c0.1,0,0.3-0.1,0.4-0.2c0.1-0.1,0.2-0.2,0.2-0.4c0-0.1,0.1-0.2,0.1-0.2
		C146.9,91.8,146.9,91.6,146.9,91.5z"/>
	<path class="st9" d="M72.7,88.2C72.7,88.2,72.7,88.1,72.7,88.2c-0.1-0.3-0.2-0.4-0.4-0.4L72,87.7c-0.1,0-0.3,0-0.4,0
		c-0.2,0-0.3,0.1-0.5,0.2s-0.4,0.3-0.5,0.6c-0.1,0.2-0.1,0.4,0,0.5c0.3,0.2,0.8,0.4,1.2,0.3c0.1,0,0.3,0,0.4-0.2
		c0.1-0.1,0.2-0.2,0.2-0.4c0-0.1,0.1-0.2,0.1-0.2C72.6,88.4,72.7,88.3,72.7,88.2z"/>
	<path class="st9" d="M64.8,89.2L64.8,89.2c0-0.2-0.1-0.3-0.2-0.3h-0.2c-0.1,0-0.2,0-0.3,0S63.9,89,63.8,89
		c-0.1,0.1-0.2,0.2-0.3,0.4c-0.1,0.1-0.1,0.3,0,0.3c0.2,0.2,0.5,0.2,0.8,0.2c0.1,0,0.2,0,0.2-0.1c0.1-0.1,0.1-0.2,0.1-0.3
		c0-0.1,0-0.1,0.1-0.2C64.8,89.4,64.8,89.3,64.8,89.2z"/>
	<path class="st9" d="M67.8,87.2L67.8,87.2c0-0.1-0.1-0.2-0.1-0.2h-0.2c-0.1,0-0.1,0-0.2,0c-0.1,0-0.2,0-0.2,0.1
		c-0.1,0.1-0.2,0.2-0.2,0.3c0,0.1,0,0.2,0,0.2c0.2,0.1,0.4,0.2,0.6,0.2c0.1,0,0.1,0,0.2-0.1c0-0.1,0.1-0.1,0.1-0.2v-0.1
		C67.7,87.4,67.8,87.3,67.8,87.2z"/>
	<path class="st12" d="M163.8,121.5c5.1-1,10.8-3.9,16.8-5.4l7.3-1.6c4.3-1.2,8.5-2.8,12.5-4.8c8.1-5.8,7.7-6.3,7.7-6.3l-5.3,0.4
		c-1.4,0.4-7.5,1-7.5,1c4.3-4,11.5-7.8,11.5-7.8c-4.6-8.3-35.1-11.9-35.1-11.9l-7.8-0.6c0,0-70.5-0.5-94.1,6.3
		c0,0-11.8,0.3-13.2-0.5l-5.1-2c-3.6-1.4-7.1-2.9-10.5-4.7c0,0-22.2-10.3-27.9-10.1c0,0-1.3,0.1,9.2,21.7c0,0,2.8,3.8-1.9,9.6
		c0,0-8.9,14.2-8.9,19.2c0,0,9.2,2.2,32.8-12.6c0,0,11.7-5,13.2-4.7"/>
	<path class="st9" d="M151.6,97l-0.1-0.1c0-0.2-0.1-0.3-0.3-0.3l-0.3-0.1c-0.1,0-0.3,0-0.4,0c-0.4,0.1-0.8,0.4-1,0.8
		c-0.1,0.2-0.1,0.4,0,0.5c0.3,0.2,0.8,0.4,1.2,0.3c0.1,0,0.3,0,0.4-0.2c0.1-0.1,0.2-0.3,0.2-0.4s0.1-0.2,0.1-0.2
		C151.5,97.3,151.6,97.1,151.6,97z"/>
	<path class="st9" d="M117.6,92.9L117.6,92.9c-0.1-0.3-0.2-0.4-0.4-0.4l-0.2-0.1c-0.1,0-0.3,0-0.4,0c-0.2,0-0.3,0.1-0.5,0.2
		s-0.4,0.3-0.5,0.6c-0.1,0.2-0.1,0.4,0,0.5c0.3,0.2,0.8,0.4,1.2,0.3c0.1,0,0.3-0.1,0.4-0.2s0.2-0.2,0.2-0.4c0-0.1,0.1-0.2,0.1-0.3
		C117.5,93.1,117.6,92.9,117.6,92.9z"/>
	<path class="st9" d="M82.7,94.9c0-0.1-0.1-0.1-0.1-0.2c0-0.3-0.2-0.5-0.4-0.6L81.7,94c-0.2-0.1-0.5-0.1-0.7,0
		c-0.3,0.1-0.5,0.2-0.8,0.3c-0.4,0.2-0.7,0.6-0.8,1c-0.2,0.3-0.2,0.6,0.1,0.8c0.6,0.4,1.3,0.6,2,0.5c0.2,0,0.5-0.1,0.6-0.3
		c0.2-0.2,0.3-0.4,0.3-0.7c0.1-0.1,0.1-0.3,0.1-0.4C82.6,95.3,82.8,94.9,82.7,94.9z"/>
	<path class="st9" d="M86.2,103.8c0-0.1-0.1-0.1-0.1-0.2c0-0.3-0.2-0.5-0.4-0.6c-0.1,0-0.4-0.1-0.5-0.1c-0.2-0.1-0.5-0.1-0.7,0
		c-0.3,0.1-0.5,0.2-0.8,0.3c-0.4,0.3-0.7,0.6-0.8,1c-0.2,0.3-0.2,0.6,0.1,0.8c0.6,0.4,1.3,0.6,2,0.5c0.2,0,0.5-0.1,0.6-0.3
		c0.2-0.2,0.3-0.4,0.3-0.7c0.1-0.1,0.1-0.3,0.2-0.4C86.1,104.2,86.3,103.9,86.2,103.8z"/>
	<path class="st9" d="M93.5,97L93.5,97c-0.1-0.3-0.2-0.4-0.4-0.4l-0.3-0.1c-0.1,0-0.3,0-0.4,0c-0.2,0-0.3,0.1-0.5,0.2
		s-0.4,0.4-0.5,0.6s-0.1,0.4,0,0.5c0.3,0.2,0.8,0.4,1.2,0.3c0.1,0,0.3,0,0.4-0.2c0.1-0.1,0.2-0.3,0.2-0.4s0.1-0.2,0.1-0.2
		C93.4,97.3,93.5,97.1,93.5,97z"/>
	<path class="st9" d="M107.2,90.8L107.2,90.8c-0.1-0.2-0.1-0.3-0.3-0.3l-0.2-0.1c-0.1,0-0.2,0-0.3,0c-0.1,0-0.2,0.1-0.3,0.1
		c-0.2,0.1-0.3,0.3-0.4,0.4s-0.1,0.3,0,0.3c0.2,0.2,0.5,0.3,0.8,0.2c0.1,0,0.2,0,0.3-0.1c0.1-0.1,0.1-0.2,0.2-0.3
		c0-0.1,0-0.1,0.1-0.2C107,91,107.2,90.8,107.2,90.8z"/>
	<path class="st9" d="M128.7,96.3L128.7,96.3c0-0.2-0.1-0.3-0.2-0.3l-0.2-0.1c-0.1,0-0.2,0-0.3,0c-0.1,0-0.2,0.1-0.3,0.1
		c-0.2,0.1-0.3,0.3-0.4,0.4s-0.1,0.3,0,0.3c0.3,0.1,0.6,0.3,0.9,0.2c0.1,0,0.2,0,0.3-0.1s0.1-0.2,0.2-0.3
		C128.7,96.4,128.7,96.4,128.7,96.3C128.6,96.5,128.7,96.4,128.7,96.3z"/>
	<path class="st9" d="M159.1,97.9L159.1,97.9c-0.1-0.2-0.1-0.3-0.3-0.3l-0.2-0.1c-0.1,0-0.2,0-0.3,0s-0.2,0.1-0.3,0.1
		c-0.2,0.1-0.3,0.3-0.4,0.4c-0.1,0.1-0.1,0.3,0,0.3c0.2,0.2,0.5,0.3,0.9,0.2c0.1,0,0.2,0,0.3-0.1s0.2-0.3,0.2-0.5
		C159,98.1,159.1,97.9,159.1,97.9z"/>
	<path class="st9" d="M199.4,102c0,0-4.2,4.2-5.6,3.5c0,0,7.4,4,15.4-2.8L199.4,102z"/>
	<path class="st9" d="M199,98.2c0,0-1.1,0.6-2.8,1.6c-0.8,0.5-1.8,1.1-2.8,1.7c-1,0.7-2,1.4-2.9,2.3c-0.4,0.4-0.7,0.8-0.9,1.3
		c0,0.1,0,0.1,0,0.2s0.1,0.2,0.1,0.2c0.1,0.1,0.3,0.2,0.5,0.3c0.5,0.1,1,0,1.5-0.2c0.2-0.1,0.5-0.1,0.7-0.2s0.5-0.2,0.7-0.3
		c0.9-0.3,1.6-0.7,2.1-1l0.8-0.4l0.1,0.1l-0.7,0.6c-0.3,0.2-0.5,0.4-0.8,0.6c-0.4,0.3-0.7,0.5-1.1,0.8c-0.5,0.3-1,0.5-1.5,0.7
		c-0.6,0.3-1.3,0.3-2,0.3c-0.9-0.1-1.5-1-1.4-1.9v-0.1c0.3-0.7,0.7-1.3,1.3-1.7c1-0.8,2.1-1.5,3.2-2.2c1-0.6,2.1-1.1,2.9-1.5
		C197.7,98.6,198.9,98.1,199,98.2L199,98.2z"/>
	<path class="st9" d="M174.9,90.6c-1.5,1.8-2.7,3.9-3.7,6s-1.6,4.3-1.8,6.6c-0.1,1.1,0.1,2.2,0.3,3.3c0.3,1,0.8,2,1.4,2.9
		c0.6,0.9,1.4,1.7,2.2,2.4c0.8,0.8,1.7,1.4,2.7,2.1l0.3,0.2l0.1,0.1c0.1,0.1,0.1,0.3,0.2,0.4c0.1,0.1,0.2,0.3,0.3,0.4
		c0.2,0.3,0.5,0.5,0.7,0.7c0.1,0.1,0.3,0.2,0.4,0.3c0.2,0.1,0.3,0.2,0.5,0.2c0.2,0.1,0.3,0.1,0.5,0.2c0.2,0,0.4,0.1,0.6,0.1v0.2
		c-0.2,0.1-0.4,0.1-0.6,0.2c-0.2,0-0.4,0.1-0.6,0.1c-0.2,0-0.4,0-0.7-0.1c-0.2,0-0.4-0.1-0.6-0.2c-0.4-0.2-0.8-0.4-1.2-0.7
		c-0.2-0.1-0.3-0.3-0.5-0.4c-0.2-0.2-0.3-0.4-0.5-0.6l0.3,0.3c-0.6-0.3-1.1-0.5-1.6-0.9c-0.5-0.3-1.1-0.7-1.6-1.1
		c-1-0.8-1.9-1.8-2.6-2.9c-1.3-2.2-1.8-4.8-1.5-7.4c0.3-2.4,1.2-4.8,2.4-6.9s2.7-4,4.4-5.7L174.9,90.6z"/>
	<path class="st9" d="M177.4,95.8c-0.2,0.6-0.4,1.2-0.5,1.8c-0.1,0.6-0.2,1.2-0.3,1.9c-0.1,0.6-0.1,1.3-0.1,1.9c0,0.3,0,0.6,0,0.9
		l0.1,0.9l0.2,0.9c0.1,0.3,0.1,0.6,0.2,0.9c0.1,0.3,0.2,0.6,0.3,0.8c0.1,0.3,0.2,0.6,0.4,0.8l0.5,0.8c0.2,0.2,0.4,0.5,0.6,0.7
		l0.3,0.3l0.3,0.3l0.7,0.6l-0.2-0.1c0.9,0.3,1.8,0.6,2.7,0.8c0.4,0.1,0.9,0.2,1.3,0.2c0.2,0,0.4,0,0.6,0c0.1,0,0.1,0,0.2,0
		c0.1,0,0,0,0.1,0l-0.4,0.7v-1v-1c0-0.6-0.1-1.3-0.2-1.9c0-0.3-0.1-0.6-0.2-0.9c-0.1-0.3-0.2-0.6-0.3-0.8c0-0.1-0.1-0.3-0.2-0.4
		c-0.1-0.1-0.1-0.2-0.2-0.3c-0.1-0.1-0.2-0.2-0.2-0.3l-0.3-0.2l-0.4-0.3v-0.2c-0.1-0.5-0.1-0.9-0.1-1.4s0-0.9,0-1.4
		c0-0.9,0.3-1.8,0.7-2.7l0.2,0.1c-0.1,0.9,0,1.7,0.1,2.6c0.1,0.4,0.2,0.8,0.3,1.3s0.2,0.8,0.3,1.2l-0.4-0.5l0.6,0.3
		c0.2,0.1,0.3,0.3,0.5,0.4s0.3,0.3,0.4,0.5c0.1,0.2,0.2,0.3,0.3,0.5c0.2,0.3,0.4,0.7,0.5,1.1s0.2,0.7,0.3,1.1
		c0.2,0.7,0.3,1.5,0.3,2.2c0,0.4,0,0.7,0,1.1s0,0.7-0.1,1.1l-0.1,0.6l-0.4,0.2c-0.2,0.1-0.4,0.2-0.6,0.2c-0.2,0-0.3,0.1-0.5,0.1
		c-0.3,0-0.6,0-0.9-0.1c-0.5-0.1-1-0.2-1.5-0.3c-1-0.3-1.9-0.6-2.8-1l-0.1-0.1h-0.1l-0.7-0.7l-0.3-0.4l-0.3-0.4
		c-0.2-0.3-0.4-0.6-0.6-0.8l-0.5-0.9c-0.2-0.3-0.3-0.7-0.4-1c-0.1-0.3-0.2-0.7-0.3-1s-0.2-0.7-0.2-1l-0.1-1v-1c0-0.3,0-0.7,0.1-1
		c0.1-0.7,0.1-1.3,0.3-1.9c0.3-1.3,0.7-2.5,1.2-3.7L177.4,95.8z"/>
	<path class="st9" d="M194.6,98.3c-0.3,0.3-0.7,0.4-1.1,0.6c-0.4,0.1-0.8,0.2-1.3,0.3c-0.5,0-1-0.1-1.5-0.2c-0.2,0-0.5-0.1-0.7-0.2
		c-0.5-0.1-0.9-0.4-1.3-0.7c-0.1-0.2-0.3-0.3-0.4-0.4l-0.3-0.4c-0.1-0.1-0.1-0.2-0.1-0.4l-0.1-0.3h0.1l0.2,0.3
		c0,0.1,0.1,0.2,0.2,0.3l0.3,0.3l0.4,0.3c0.2,0.1,0.4,0.2,0.5,0.2c0.2,0.1,0.4,0.1,0.6,0.2c0.2,0,0.4,0.1,0.7,0.1
		c0.4,0,0.9,0,1.3-0.1c0.4,0,0.8,0,1.2,0C193.8,98.1,194.2,98.2,194.6,98.3L194.6,98.3z"/>
	<path class="st9" d="M124.8,116.5c-0.2,1.7-0.6,3.4-1.1,5.1c-0.2,0.8-0.5,1.7-0.8,2.5s-0.6,1.7-1,2.5c-0.7,1.7-1.6,3.2-2.7,4.7
		c-0.3,0.4-0.6,0.7-0.9,1.1s-0.6,0.7-1,1s-0.8,0.6-1.2,0.9l-0.7,0.3l-0.7,0.3l-0.6,0.2l-0.4-0.5c-0.3-0.3-0.5-0.6-0.8-0.8
		c-0.3-0.2-0.5-0.6-0.7-0.8c-0.4-0.6-0.8-1.2-1.2-1.8c-0.8-1.2-1.4-2.5-2-3.8c-0.3-0.6-0.5-1.3-0.8-2s-0.4-1.4-0.6-2
		c-0.3-1.4-0.6-2.8-0.7-4.2v-0.1c0-0.2,0.1-0.4,0.1-0.5c0.1-0.2,0.1-0.3,0.2-0.5c0.1-0.3,0.3-0.6,0.6-0.9c0.2-0.3,0.5-0.5,0.9-0.7
		c0.3-0.2,0.7-0.3,1.1-0.3h0.1h0.1c0.7,0.3,1.5,0.5,2.2,0.6c0.4,0.1,0.8,0.1,1.2,0.1c0.4,0,0.8-0.1,1.1-0.3
		c-0.7,0.5-1.5,0.7-2.3,0.7s-1.7-0.1-2.5-0.3h0.2c-0.5,0.1-0.9,0.4-1.2,0.8c-0.1,0.2-0.2,0.5-0.3,0.7c0,0.1-0.1,0.3-0.1,0.4
		s0,0.2-0.1,0.4v-0.2c0.3,1.3,0.6,2.6,1,3.9c0.2,0.6,0.4,1.3,0.7,1.9s0.5,1.2,0.8,1.8c0.6,1.2,1.2,2.4,1.9,3.5
		c0.4,0.6,0.8,1.1,1.2,1.6l0.6,0.8c0.2,0.3,0.4,0.5,0.6,0.7l-1-0.2l0.5-0.2l0.5-0.3c0.3-0.2,0.6-0.4,0.9-0.6
		c0.3-0.3,0.6-0.5,0.9-0.8s0.6-0.6,0.8-0.9c0.5-0.6,1-1.3,1.5-2c0.5-0.7,0.9-1.4,1.3-2.2C122.2,122.9,123.6,119.8,124.8,116.5z"/>
	<path class="st9" d="M112.3,131.2c0,0,0.5-0.4,1.2-1.1c0.7-0.7,1.7-1.6,2.6-2.6c0.8-0.9,1.6-1.9,2.2-2.9c0.1-0.2,0.2-0.4,0.3-0.6
		c0.1-0.2,0.2-0.3,0.2-0.5l0.2-0.4l-0.1,0.4c0,0.2-0.1,0.3-0.2,0.5s-0.1,0.4-0.3,0.6c-0.6,1.1-1.2,2.2-2,3.1
		c-1.1,1.4-2.3,2.8-3.5,4.1c-0.2,0.2-0.5,0.2-0.7,0l0,0c-0.2-0.2-0.2-0.5,0-0.7C112.2,131.3,112.2,131.3,112.3,131.2L112.3,131.2z"
		/>
	<path class="st9" d="M109.5,125l0.3,0.1c0.3,0,0.6,0,0.8,0c0.4,0,0.8-0.1,1.2-0.2c0.5-0.1,0.9-0.3,1.3-0.6c0.2-0.1,0.4-0.2,0.6-0.4
		s0.4-0.3,0.6-0.4c0.4-0.3,0.7-0.6,1-0.9s0.5-0.5,0.6-0.7l0.2-0.3l-0.2,0.3c-0.2,0.3-0.4,0.5-0.6,0.8c-0.3,0.4-0.6,0.7-0.9,1
		c-0.2,0.2-0.4,0.4-0.6,0.5c-0.2,0.2-0.4,0.3-0.6,0.5c-0.4,0.3-0.9,0.6-1.4,0.8c-0.4,0.2-0.9,0.3-1.3,0.4c-0.3,0.1-0.7,0.1-1,0.1
		c-0.1,0-0.3,0-0.4,0L109.5,125z"/>
	<path class="st9" d="M85,113.1c-0.5,1.1-1.1,2.1-1.8,3.1c-0.7,1-1.4,1.9-2.2,2.8c-0.4,0.5-0.8,0.9-1.2,1.3s-0.8,0.9-1.3,1.3
		s-0.9,0.8-1.4,1.2c-0.5,0.4-1,0.7-1.5,1.1l0.2-0.1c-0.6,0.7-1.2,1.3-1.9,1.8c-0.4,0.3-0.8,0.6-1.2,0.8c-0.2,0.1-0.5,0.2-0.7,0.3
		c-0.4,0.1-0.8,0.2-1.2,0.1c-0.2-0.1-0.3-0.1-0.5-0.3c-0.1-0.1-0.2-0.2-0.3-0.4c-0.1-0.2-0.2-0.4-0.2-0.6c0-0.3-0.1-0.6-0.1-0.8
		c0-0.5,0-0.9,0.1-1.4c0.1-0.8,0.2-1.7,0.2-2.5v0.4c-0.2-0.5-0.3-1-0.6-1.5c-0.3-0.5-0.4-1-0.7-1.5c-0.5-1-1-1.9-1.6-2.8
		c-0.3-0.4-0.6-0.9-0.9-1.3s-0.7-0.8-1-1.2l-0.3-0.3c-0.1-0.1-0.2-0.2-0.3-0.4c-0.2-0.3-0.4-0.6-0.5-1s0-0.9,0.2-1.3
		c0.2-0.3,0.5-0.5,0.9-0.6h0.4c-0.2,0-0.1,0-0.1,0H66h0.6l1.3-0.1l2.6-0.3c-0.8,0.3-1.6,0.6-2.4,0.8c-0.4,0.1-0.8,0.2-1.2,0.4
		l-0.6,0.2H66h-0.2h-0.2c0,0,0,0-0.2,0h0.4c-0.2,0.1-0.3,0.2-0.4,0.4c0,0.1,0,0.2,0,0.3c0.1,0.2,0.2,0.3,0.3,0.4l0.3,0.2l0.3,0.3
		c0.4,0.4,0.9,0.8,1.3,1.2c0.4,0.4,0.8,0.9,1.1,1.3c0.7,0.9,1.3,1.9,1.9,2.9c0.3,0.5,0.5,1,0.7,1.6l0.3,0.8c0.1,0.3,0.2,0.5,0.3,0.8
		v0.2v0.2c-0.1,0.9-0.1,1.7-0.2,2.5c0,0.4-0.1,0.8-0.1,1.2c0,0.1,0,0.3,0,0.4l0,0c0-0.1-0.1-0.1-0.1-0.1s-0.1-0.1-0.2-0.1h-0.1l0,0
		c-0.2,0-0.1,0,0-0.1c0.1,0,0.3-0.1,0.4-0.2c0.3-0.2,0.6-0.4,0.9-0.6c0.6-0.5,1.2-1,1.8-1.6l0.1-0.1h0.1c0.5-0.3,1-0.6,1.4-1
		s0.9-0.7,1.4-1c0.9-0.7,1.8-1.5,2.6-2.3C81.8,116.6,83.4,114.9,85,113.1z"/>
	<polygon class="st9" points="66.5,112.7 70.6,112.2 67.1,114.5 	"/>
	<polygon class="st9" points="69.3,116.6 76.1,114.4 70.1,118.4 	"/>
	<polygon class="st9" points="70.2,120.2 79.1,116 71.3,121.9 	"/>
	<path class="st9" d="M52.7,107.1c0,0,1.2-0.6,3-1.3c2.2-0.9,4.5-1.7,6.9-2.3c0.6-0.2,1.3-0.3,1.9-0.4c0.6-0.1,1.3-0.2,1.8-0.3
		l1.7-0.2l1.6-0.1c0.5,0,0.9,0,1.3,0c0.3,0,0.7,0,1,0.1l0.9,0.1h-0.9c-0.3,0-0.7,0-1,0c-0.4,0-0.8,0-1.3,0.1l-1.5,0.2
		c-0.5,0.1-1.1,0.2-1.7,0.4s-1.2,0.3-1.8,0.5c-0.6,0.2-1.2,0.4-1.8,0.6c-2.2,0.8-4.3,1.8-6.4,2.8c-1.7,0.9-2.8,1.5-2.8,1.5
		L52.7,107.1z"/>
	<path class="st9" d="M74.9,106.8l11.8,2c3.5,0.6,7.7,1.3,12.1,2s9.1,1.4,13.9,2.1s9.4,1.3,13.9,1.7c2.2,0.2,4.4,0.4,6.4,0.6
		c2,0.1,4,0.2,5.8,0.3s3.4,0,4.9,0s2.7-0.2,3.7-0.3c0.8-0.1,1.6-0.3,2.4-0.5l0.8-0.2l-0.8,0.3c-0.8,0.3-1.6,0.5-2.4,0.6
		c-1,0.2-2.3,0.4-3.8,0.5s-3.1,0.2-4.9,0.2s-3.7,0-5.8-0.1s-4.2-0.2-6.4-0.4c-4.5-0.4-9.2-1-14-1.6s-9.4-1.5-13.9-2.2
		s-8.5-1.6-12-2.3s-6.4-1.4-8.5-1.8L74.9,106.8z"/>
	<path class="st9" d="M152.5,119.2c0,0,0.8-0.5,2-1.2c1.5-0.8,3.1-1.4,4.7-1.9c0.4-0.1,0.9-0.2,1.3-0.4s0.9-0.2,1.3-0.2
		s0.8-0.1,1.2-0.1s0.8,0,1.1,0l0.9,0.1c0.2,0,0.5,0.1,0.7,0.1l0.6,0.1l-0.6-0.1c-0.2,0-0.5-0.1-0.7-0.1h-0.9l-1.1,0.1
		c-0.4,0.1-0.8,0.2-1.2,0.2s-0.8,0.2-1.2,0.4s-0.8,0.3-1.2,0.5c-1.5,0.6-2.9,1.4-4.3,2.3c-1.1,0.8-1.8,1.3-1.8,1.3
		c-0.3,0.3-0.8,0.2-1.1-0.1C152,120,152.1,119.6,152.5,119.2C152.4,119.3,152.4,119.3,152.5,119.2L152.5,119.2L152.5,119.2z"/>
	<path class="st9" d="M150.1,124c0,0,2.7-1.3,5.5-2.5c1.4-0.6,2.8-1.1,3.9-1.4c0.2-0.1,0.5-0.1,0.8-0.2c0.2-0.1,0.4-0.1,0.6-0.1
		c0.1,0,0.3,0,0.4,0l0,0c-0.1,0-0.2,0-0.4,0.1c-0.2,0-0.4,0.1-0.6,0.2c-0.2,0.1-0.4,0.2-0.7,0.3c-1,0.4-2.3,1.2-3.6,1.9
		c-2.6,1.5-5.1,3.1-5.1,3.1c-0.3,0.2-0.8,0.1-1-0.2C149.6,124.8,149.7,124.3,150.1,124L150.1,124z"/>
	<path class="st9" d="M50.1,105.1c0-0.1-0.1-0.1-0.1-0.2c0-0.3-0.2-0.5-0.5-0.6c0,0-0.4-0.1-0.5-0.1c-0.2-0.1-0.5-0.1-0.7,0
		c-0.3,0.1-0.5,0.2-0.8,0.3c-0.4,0.2-0.7,0.6-0.8,1c-0.2,0.3-0.2,0.6,0.1,0.8c0.6,0.4,1.3,0.6,2,0.5c0.2,0,0.5-0.1,0.6-0.3
		c0.2-0.3,0.4-0.7,0.5-1.1C50,105.5,50.2,105.2,50.1,105.1z"/>
	<path class="st9" d="M188,88.2c0,0.4,0,0.8-0.1,1.2c-0.1,0.3-0.2,0.6-0.4,0.9s-0.6,0.4-0.8,0.7c-0.5,0.5-0.8,1-1.1,1.6
		c-0.1,0.2-0.2,0.4-0.2,0.6l-0.1,0.3H185l-0.1-0.3c0-0.1-0.1-0.2-0.1-0.3c0-0.1-0.1-0.3-0.1-0.4c0-0.4,0-0.8,0.1-1.1
		c0.1-0.4,0.2-0.8,0.4-1.2c0.1-0.4,0.3-0.8,0.5-1.2c0.2-0.3,0.5-0.5,0.9-0.7s0.8-0.3,1.2-0.2L188,88.2z"/>
	<path class="st9" d="M181.7,90.6l-0.1-0.1c0-0.2-0.1-0.3-0.3-0.3l-0.3-0.1c-0.1,0-0.3,0-0.4,0c-0.4,0.1-0.8,0.4-1,0.8
		c-0.1,0.2-0.1,0.4,0,0.5c0.3,0.2,0.8,0.4,1.2,0.3c0.1,0,0.3,0,0.4-0.2c0.1-0.1,0.2-0.2,0.2-0.4c0-0.1,0.1-0.2,0.1-0.3
		C181.6,90.9,181.7,90.7,181.7,90.6z"/>
	<path class="st9" d="M65,89.5c-1.2,0.6-2.4,1.2-3.7,1.6c-1.3,0.5-2.6,0.8-3.9,1.2c-0.7,0.1-1.5,0.3-2.3,0.4s-1.6,0.2-2.4,0.3
		c-1.6,0.2-3.2,0.4-4.7,0.5c-0.8,0.1-1.5,0.1-2.2,0.1s-1.3,0-2-0.1c-0.5,0-1.1-0.1-1.6-0.2c-0.4,0-0.8-0.1-1.3-0.2l-1.1-0.3v-0.1
		l1.1,0.2c0.4,0.1,0.8,0.1,1.2,0.1c0.5,0,1.1,0,1.6,0c0.6,0,1.2,0,1.9-0.1s1.4-0.1,2.1-0.2c1.5-0.2,3-0.5,4.6-0.8s3.1-0.7,4.5-1.1
		s2.8-0.6,4-0.8c2.3-0.4,4-0.6,4-0.6L65,89.5z"/>
	<path class="st9" d="M58.2,96.3L58.2,96.3c-0.1-0.3-0.2-0.4-0.4-0.4l-0.3-0.1c-0.1,0-0.3,0-0.4,0c-0.2,0-0.3,0.1-0.5,0.2
		s-0.4,0.3-0.5,0.6c-0.1,0.2-0.1,0.4,0,0.5c0.3,0.2,0.8,0.4,1.2,0.3c0.1,0,0.3-0.1,0.4-0.2c0.1-0.1,0.2-0.2,0.2-0.4
		c0-0.1,0.1-0.2,0.1-0.3C58.2,96.5,58.3,96.4,58.2,96.3z"/>
</g>
</svg>
